<?xml version="1.0" encoding="utf-8"?>
<!-- Generator: Adobe Illustrator 16.0.4, SVG Export Plug-In . SVG Version: 6.00 Build 0)  -->
<!DOCTYPE svg PUBLIC "-//W3C//DTD SVG 1.1//EN" "http://www.w3.org/Graphics/SVG/1.1/DTD/svg11.dtd">
<svg version="1.1" id="Layer_1" xmlns="http://www.w3.org/2000/svg" xmlns:xlink="http://www.w3.org/1999/xlink" x="0px" y="0px"
	 width="500px" height="500px" viewBox="0 0 500 500" enable-background="new 0 0 500 500" xml:space="preserve">
<g>
	<path fill="#231F20" d="M111.913,293.407H83.311c-0.407-1.318-3.043-8.012-7.911-20.083c-5.377-13.286-9.128-21.909-11.258-25.864
		c-0.609,2.03-1.117,5.325-1.521,9.889c-0.407,4.564-0.609,9.84-0.609,15.823c0,3.754,0.1,7.278,0.304,10.573
		c0.203,3.298,0.811,6.519,1.826,9.662H37.517v-61.16c3.245-0.305,6.059-0.66,8.444-1.066c2.382-0.404,4.032-0.708,4.944-0.912
		c-3.248-2.027-5.427-3.397-6.542-4.107c-1.726-1.014-4.008-2.18-6.846-3.5v-43.664h26.625c-0.609,2.125-1.117,5.512-1.521,10.16
		c-0.407,4.65-0.609,9.555-0.609,14.708c0,4.45,0.152,8.417,0.457,11.905c0.305,3.486,0.861,6.444,1.674,8.869
		c2.229-4.75,5.021-11.373,8.367-19.864c4.158-10.614,7.099-19.207,8.824-25.778h26.777c-3.449,7.393-7.405,16.15-11.867,26.277
		c-2.84,6.48-5.579,12.961-8.215,19.44c-1.016,2.532-2.031,5.015-3.043,7.444c0,0.403,1.598,3.567,4.792,9.491
		c3.195,5.925,5.501,9.798,6.922,11.62c-2.537,2.229-5.021,4.103-7.455,5.619c-1.015,0.608-3.652,1.924-7.912,3.949
		c1.723,1.724,2.586,2.735,2.586,3.04c0,0.304,0.404,1.82,1.217,4.554c1.115-1.114,3.701-3.75,7.759-7.91
		c1.521-1.522,2.788-2.739,3.803-3.652c2.229,3.855,4.918,9.333,8.063,16.432C107.905,282.402,110.289,288.438,111.913,293.407z"/>
	<path fill="#231F20" d="M207.455,294.303c-2.943,0.511-6.619,1.047-11.03,1.608s-7.987,0.843-10.726,0.843
		c-2.739,0-4.59-0.229-5.553-0.688c-0.964-0.459-1.75-1.198-2.359-2.221c-0.71-7.447-2.079-13.137-4.107-17.062
		c-2.03-3.927-5.628-5.894-10.802-5.894c-2.03,0-3.753-0.051-5.172-0.152c-1.422-0.1-2.738-0.202-3.956-0.305
		c-2.434,0-4.008,0.939-4.716,2.815c-0.71,1.878-1.624,7.279-2.739,16.202c-0.305,1.928-1.27,3.271-2.891,4.031
		c-1.624,0.762-3.906,1.142-6.847,1.142c-1.521,0-4.259-0.152-8.215-0.456s-7.101-0.456-9.433-0.456
		c0-2.534,0.658-6.135,1.978-10.803c3.854-13.792,5.881-20.995,6.085-21.603c2.637,0,4.512-0.077,5.629-0.229
		c1.115-0.152,2.435-0.633,3.955-1.445c-0.913-0.305-1.826-0.533-2.738-0.686c-0.914-0.152-1.826-0.228-2.739-0.228h-3.347
		c0-2.028,0.86-6.847,2.586-14.454c3.245-14.301,5.881-26.725,7.911-37.273c1.621-8.315,3.195-14.705,4.716-19.17
		c0.913-2.738,2.028-4.816,3.347-6.237c0.404-0.202,1.165-0.456,2.282-0.761c2.434-0.709,5.173-1.064,8.215-1.064
		c3.751,0,8.977,0.607,15.67,1.825c0,1.623,2.18,9.687,6.542,24.19c3.854,12.984,8.216,26.928,13.084,41.838
		c4.869,14.91,7.961,23.886,9.28,26.929c-1.015-0.202-1.673-0.38-1.977-0.532c-0.304-0.153-0.51-0.228-0.608-0.228
		c-0.509,0.204-1.422,0.461-2.74,0.765c2.74,1.227,4.869,3.064,6.39,5.512C202.637,280.367,204.31,285.115,207.455,294.303z
		 M163.639,244.569c-0.406-3.143-0.965-5.934-1.673-8.367c-1.624-5.577-2.486-8.621-2.586-9.129
		c-1.217,2.131-2.106,5.352-2.663,9.661c-0.559,4.312-1.749,7.53-3.575,9.661C156.893,245.179,160.392,244.569,163.639,244.569z
		 M168.051,263.891c0,0.103-0.457-0.099-1.37-0.608c-0.913-0.506-1.624-0.912-2.13-1.217c0.1,0.103,0.43,0.229,0.989,0.38
		C166.097,262.598,166.934,263.081,168.051,263.891z M196.044,273.628c0.507,0.102,0.938,0.179,1.293,0.228
		c0.354,0.053,0.685,0.077,0.989,0.077c0-0.305-4.895-2.027-14.681-5.173c-9.79-3.144-15.137-4.717-16.051-4.717
		c0.405,0.305,0.86,0.559,1.369,0.761c7.81,3.146,11.917,4.769,12.324,4.869C185.038,270.992,189.958,272.311,196.044,273.628z"/>
	<path fill="#231F20" d="M244.729,294.015c-3.044-0.709-7.912-1.064-14.606-1.064c-6.797,0-12.223,0.418-16.279,1.255
		c-0.305-2.841-0.584-6.419-0.837-10.731c-0.254-4.312-0.38-8.246-0.38-11.798c0-3.957,0.201-8.017,0.608-12.178
		c0.404-4.159,0.609-6.95,0.609-8.372c0-4.669-0.103-8.17-0.305-10.505c-0.204-2.335-0.356-4.362-0.456-6.088
		c0-0.913,0.252-1.677,0.761-2.284c1.217-1.014,2.333-2.027,3.348-3.045c-0.914-0.709-2.031-1.065-3.348-1.065
		c0-9.433,0.1-16.431,0.304-20.995c0.608-13.591,0.913-22.365,0.913-26.32c2.927,0,7.971-0.277,15.136-0.837
		c7.165-0.557,11.958-1.038,14.379-1.445c0.101,0.509,0.153,1.802,0.153,3.88c0,2.08,0,3.677,0,4.791v3.195v3.195v2.891v2.738v2.587
		v2.282v2.13v1.825c0,1.928,0,3.88,0,5.857c0,1.979,0,3.932,0,5.857v1.674c-6.086,0.812-10.854,2.334-14.302,4.564
		c1.318,0,3.044-0.202,5.173-0.609c2.13-0.404,3.7-0.608,4.715-0.608c1.218,0,2.688,0.305,4.414,0.913V294.015z"/>
	<path fill="#231F20" d="M313.19,270.708c-0.81,8.023-5.464,13.965-13.961,17.824c-6.172,2.844-13.305,4.266-21.396,4.266
		c-1.519,0-2.91-0.1-4.174-0.305c-1.266-0.202-2.1-0.404-2.504-0.609c-7.283-3.65-12.19-8.366-14.72-14.147
		c-1.82-4.158-2.731-10.193-2.731-18.104c0-1.926,0-3.881,0-5.857c0-1.979,0-3.98,0-6.01h22.974v21.146
		c0.404,0.205,0.76,0.407,1.064,0.608c1.521,0.813,4.36,1.218,8.521,1.218c1.419-4.885,2.407-9.057,2.967-12.518
		c0.556-3.461,0.837-6.465,0.837-9.01c0-2.137-0.18-3.793-0.533-4.961c-0.356-1.17-0.635-2.164-0.837-2.979
		c0-0.609,1.115-1.576,3.349-2.9c5.069-3.154,10.192-6.464,15.364-9.925c-1.217-0.202-2.307-0.38-3.271-0.532
		c-0.966-0.152-1.901-0.23-2.815-0.23c-1.42,0-2.639,0.151-3.65,0.456c-4.159,1.217-7.302,1.978-9.434,2.282v-53.553h24.951V270.708
		z"/>
	<path fill="#231F20" d="M392.759,266.629c0,5.682-2.13,11.818-6.389,18.409c-4.869,7.508-10.247,11.26-16.127,11.26h-29.06
		c-5.378,0-9.99-2.131-13.844-6.391c-5.073-5.577-7.607-11.004-7.607-16.279v-29.971c1.621,0.304,3.295,0.584,5.021,0.836
		c1.724,0.254,2.94,0.381,3.65,0.381c1.521,0,3.652-0.404,6.39-1.217c-1.622-0.811-3.981-1.621-7.073-2.435
		c-3.096-0.812-5.758-1.419-7.987-1.826v-44.12c3.245-7.098,6.085-11.765,8.519-13.997c3.144-2.94,7.811-4.411,13.998-4.411
		c16.227,0,28.5,2.281,36.816,6.846c9.129,5.072,13.693,12.832,13.693,23.277c0,7.404-0.178,16.381-0.532,26.929
		c-0.356,10.55-0.532,18.104-0.532,22.669c-1.32,0-2.156,0.025-2.511,0.076c-0.356,0.052-1.293,0.33-2.813,0.836
		c1.316,0.711,2.686,1.369,4.107,1.979C391.998,260.798,392.759,263.183,392.759,266.629z M372.372,251.111
		c-2.334-1.317-3.905-2.484-4.716-3.499c-0.205-0.202-0.813-1.521-1.826-3.955h3.348c-1.117,0.204-2.08,0.406-2.891,0.607
		c-0.813,0.205-2.384,0.711-4.717,1.522c0-2.94,0-6.642,0-11.106c0-4.463,0-7.402,0-8.824c0-4.26-0.224-7.531-0.665-9.812
		c-0.442-2.283-1.353-4.234-2.732-5.857h-6.795v36.664h-8.063c0.607,0.205,1.646,0.434,3.118,0.686
		c1.47,0.254,2.967,0.38,4.488,0.38c0,1.319,0,2.563,0,3.728c0,1.168,0,2.259,0,3.271c0,1.117,0.024,2.183,0.074,3.195
		c0.049,1.015,0.424,3.347,1.125,6.998c0.8,0.102,1.801,0.152,3.002,0.152c2.098-0.1,3.897-0.152,5.397-0.152
		c0.5-2.027,0.802-4.664,0.901-7.912c0.1-3.244,0.149-6.336,0.149-9.28c2.839,0,5.172,0.458,6.998,1.37
		C370.396,250.198,371.661,250.808,372.372,251.111z"/>
	<path fill="#231F20" d="M471.111,266.629c0,5.682-2.131,11.818-6.39,18.409c-4.868,7.508-10.246,11.26-16.127,11.26h-29.059
		c-5.378,0-9.99-2.131-13.845-6.391c-5.072-5.577-7.607-11.004-7.607-16.279v-29.971c1.622,0.304,3.295,0.584,5.021,0.836
		c1.724,0.254,2.941,0.381,3.651,0.381c1.521,0,3.652-0.404,6.39-1.217c-1.623-0.811-3.981-1.621-7.073-2.435
		c-3.096-0.812-5.759-1.419-7.988-1.826v-44.12c3.244-7.098,6.086-11.765,8.52-13.997c3.143-2.94,7.809-4.411,13.997-4.411
		c16.227,0,28.5,2.281,36.817,6.846c9.129,5.072,13.693,12.832,13.693,23.277c0,7.404-0.179,16.381-0.533,26.929
		c-0.355,10.55-0.532,18.104-0.532,22.669c-1.319,0-2.155,0.025-2.51,0.076c-0.356,0.052-1.294,0.33-2.814,0.836
		c1.316,0.711,2.687,1.369,4.107,1.979C470.351,260.798,471.111,263.183,471.111,266.629z M450.725,251.111
		c-2.335-1.317-3.905-2.484-4.717-3.499c-0.205-0.202-0.812-1.521-1.825-3.955h3.348c-1.117,0.204-2.081,0.406-2.892,0.607
		c-0.812,0.205-2.384,0.711-4.716,1.522c0-2.94,0-6.642,0-11.106c0-4.463,0-7.402,0-8.824c0-4.26-0.224-7.531-0.665-9.812
		c-0.443-2.283-1.353-4.234-2.732-5.857h-6.796v36.664h-8.063c0.608,0.205,1.647,0.434,3.119,0.686
		c1.469,0.254,2.967,0.38,4.488,0.38c0,1.319,0,2.563,0,3.728c0,1.168,0,2.259,0,3.271c0,1.117,0.022,2.183,0.073,3.195
		c0.05,1.015,0.425,3.347,1.126,6.998c0.799,0.102,1.8,0.152,3.001,0.152c2.099-0.1,3.898-0.152,5.398-0.152
		c0.499-2.027,0.801-4.664,0.901-7.912c0.099-3.244,0.149-6.336,0.149-9.28c2.838,0,5.172,0.458,6.998,1.37
		S450.014,250.808,450.725,251.111z"/>
</g>
</svg>
