<?xml version="1.0" encoding="utf-8"?>
<!-- Generator: Adobe Illustrator 16.0.4, SVG Export Plug-In . SVG Version: 6.00 Build 0)  -->
<!DOCTYPE svg PUBLIC "-//W3C//DTD SVG 1.1//EN" "http://www.w3.org/Graphics/SVG/1.1/DTD/svg11.dtd">
<svg version="1.1" id="Layer_1" xmlns="http://www.w3.org/2000/svg" xmlns:xlink="http://www.w3.org/1999/xlink" x="0px" y="0px"
	 width="500px" height="500px" viewBox="0 0 500 500" enable-background="new 0 0 500 500" xml:space="preserve">
<path fill="#ED1C24" d="M305.504,154.415c-75.519,0-136.737,61.219-136.737,136.737c0,75.518,61.218,136.737,136.737,136.737
	c75.52,0,136.737-61.22,136.737-136.737C442.241,215.633,381.023,154.415,305.504,154.415z M305.504,195.623
	c24.353,0,46.562,9.126,63.436,24.127L216.295,325.325c-4.068-10.615-6.32-22.128-6.32-34.174
	C209.976,238.393,252.744,195.623,305.504,195.623z M305.504,386.681c-26.448,0-50.382-10.751-67.679-28.117l154.634-106.952
	c5.491,12.053,8.574,25.432,8.574,39.54C401.033,343.909,358.264,386.681,305.504,386.681z"/>
<path fill="#FFFFFF" d="M255.086,367.638c5.462,6.245,26.225,13.249,44.33,13.11c40.272-0.311,88.972-25.754,96.933-81.012
	c3.279-6.867,5.464-8.897,9.054-10.458c3.591-1.561,10.147-1.873,13.425-4.683c3.278-2.81,7.493-7.337,13.894-6.711
	c6.398,0.623,16.074,6.556,21.694,6.711c5.619,0.155,8.896-1.249,9.054-5.775c0.158-4.526-15.453-8.739-15.453-10.459
	c0-1.716,7.182-3.436,11.707-3.12c4.525,0.311,16.077-1.562,16.39-5.933c0.313-4.37-11.399-8.82-24.192-9.209
	c-5.151-0.157-8.899,0.001-9.991,1.093c-1.093,1.092-2.576,2.497-2.576,2.497c-0.233-10.419,16.273-22.243,16.273-27.043
	c0-2.576-1.288-3.747-3.747-3.747c-2.458,0-22.711,7.024-33.364,24.468c0.352-3.161,0.442-4.958-0.469-5.034
	c-4.214-0.351-6.79,0-9.014,1.288c-2.225,1.288-125.225,87.334-136.62,95.763c10.302,5.151,23.882,10.615,44.175,12.021
	c-17.718-0.547-24.898-3.436-39.182-8.195C272.412,351.951,263.825,364.36,255.086,367.638z"/>
<path d="M476.698,258.957c0.176-6.556-18.146-9.599-24.819-9.658c-6.614-0.059-9.774,0.351-11.303,1.797
	c2.088-8.129,9.909-13.262,14.219-20.24c1.599-2.587,2.773-7.119-0.652-9.003c-3.884-2.137-11.183,2.645-14.271,4.274
	c-8.304,4.375-15.327,10.751-20.665,18.411c-1.266-9.266-14.125,0.185-19.455,3.885c-14.634,10.158-29.231,20.373-43.828,30.584
	c-27.943,19.549-84.539,59.77-84.564,60.376c-0.025,0.605,5.177,3.354,5.151,3.396c-4.643,9.874-10.965,17.68-22.478,25.053
	c8.194,9.6,28.859,13.836,44.68,13.774c19.591-0.077,38.882-5.757,52.896-13.701c14.513-8.228,26.328-20.46,34.602-34.876
	c4.341-7.56,7.205-15.901,9.263-24.338c1.393-5.707,2.135-10.909,6.271-15.51c3.148-3.501,8.849-3.812,13.146-5.024
	c3.608-1.021,6.097-3.933,8.968-6.136c5.596-4.287,11.568-2.349,17.447-0.105c6.358,2.426,16.595,6.307,21.197,1.893
	c7.115-6.822-9.392-13.929-12.962-15.661c4.098-2.107,10.36-2.4,12.761-2.692C468.898,264.65,476.57,263.737,476.698,258.957z
	 M394.179,307.179c-1.613,7.511-4.423,14.705-7.858,21.554c-11.156,22.243-31.133,38.238-54.32,46.007
	c-11.052,3.704-23.417,5.034-32.428,4.8c-19.511-0.509-35.278-4.722-42.925-11.435c5.931-2.575,18.029-14.046,21.227-24.27
	c19.512,8.116,40.508,7.647,40.508,7.647s-8.899-0.311-23.102-4.293c-9.047-2.537-17.882-5.778-21.464-8.039
	c23.575-17.27,49.02-33.81,72.955-50.569c4.446-3.113,8.898-6.215,13.348-9.325c4.823,4.412,11.345,8.893,17.779,9.938
	c0.615,0.101,1.226,0.042,1.822-0.136c-1.739,4.24-1.586,8.271,4.158,10.324c4.446,1.59,8.902,0.138,12.904-2.636
	C395.312,299.996,395.042,303.153,394.179,307.179z M474.942,259.23c-0.313,4.526-28.295,4.773-27.979,8.858
	c0.059,0.761,3.834,2.753,5.736,3.863c2.106,1.229,4.05,2.231,6.135,3.683c8.089,5.624,0.83,7.381-4.419,7.463
	c-11.583,0.183-19.318-11.156-30.958-3.966c-1.022,0.633-2.627,2.093-3.541,2.881c-3.746,3.224-7.811,3.889-12.499,5.072
	c-0.511,0.13-0.995,0.282-1.462,0.454c1.215-1.619,2.225-3.234,3.134-4.623c2.325-3.55,0.92-4.721-1.753-1.011
	c-5.557,7.715-13.591,17.483-23.675,13.876c-3.651-1.306-2.552-6.051-0.238-9.321c2.312-3.27,6.059-9.201,5.356-9.513
	c-0.703-0.314-2.811,3.278-5.854,7.024c-1.497,1.842-4.548,2.298-8.005,0.875c-4.196-1.73-8.506-4.48-12.032-7.525
	c9.424-6.589,18.841-13.184,28.275-19.756c4.481-3.124,8.963-6.243,13.456-9.35c2.411-1.668,13.876-9.247,13.172-1.247
	c-0.027,0.326-0.137,3.911,1.1,1.693c6.333-11.357,19.36-21.517,32.545-24.22c6.293-1.29,1.16,5.779,0.373,6.753
	c-2.25,2.785-4.687,5.413-6.929,8.203c-3.281,4.077-6.105,8.375-6.465,13.667c-0.032,0.486-0.574,3.951,1.313,1.917
	c2.726-2.932,5.418-3.869,10.452-3.752C460.722,251.476,475.255,254.704,474.942,259.23z"/>
<path fill="#FFFFFF" d="M236.512,307.386c-2.654-2.575-4.84-6.168-3.669-9.834c-13.657,4.839-19.667,7.961-26.458,12.799
	c-6.79,4.839-15.376,11.786-21.073,11.629c-5.264-0.143-3.823,2.341-2.886,3.122s5.228,9.365,2.184,11.317
	c-3.044,1.952-8.726-2.804-15.688-9.6c-3.278-3.201-5.151-4.938-12.058-4.703c-6.426,0.218-15.175-7.132-17.912-9.6
	c-3.219,5.912-8.429,8.254-10.361,8.312c-1.932,0.058-3.746-2.107-3.688-4.625c0.059-2.517,8.312-10.126,8.312-12.233
	s-11.004-0.41-14.458-0.469s-5.151-1.639-5.327-3.688c-0.176-2.049,11.765-11.94,12.702-11.94c0.937,0,5.385,4.038,7.317,5.033
	c-8.663-14.458-20.955-13.287-21.248-17.735c-0.168-2.574,2.868-3.613,8.136-3.63c17.854-0.059,44.779,18.955,49.638,19.083
	c2.224,0.059,7.609-8.02,10.653-11.414c3.044-3.396,10.068-10.068,14.868-17.21c4.8-7.141,15.688-33.95,15.805-44.837
	c0.117-10.887-6.907-23.882-8.546-23.531c-1.639,0.351-1.17,22.594-1.17,22.594l-5.502-35.472l-1.405,11.824l-2.107-7.609
	l-0.702,16.155c0,0-4.098-14.75-5.151-15.219c-1.053-0.468-2.81,13.58-5.854,19.082c-3.043,5.502-9.365,10.068-12.058,13.112
	c-2.692,3.044-5.151,6.79-8.312,9.834c-3.161,3.044-11.239,9.014-15.688,14.399s-8.897,11.941-11.122,15.219
	c-9.6,1.639-25.638,1.756-30.438-7.375c3.161-0.468,5.385-0.819,6.205-2.576c0.819-1.756,0.117-5.385,0.117-9.6
	c2.224-1.405,5.151-3.98,7.96-7.141c0-2.107,0.234-2.81,0-4.566c1.756-0.702,5.268-3.278,7.61-4.8
	c0.117-4.917,0.117-5.502,0.234-8.429c3.278-2.107,7.727-6.673,9.717-9.951c0.468-3.395,0.117-7.024,0.351-12.644
	c0.234-5.619-1.906-9.716-1.99-14.634c-0.234-13.697,14.634-22.945,16.273-27.394c1.639-4.449,1.405-7.727,2.927-10.771
	s9.249-8.429,9.365-14.166c0.051-2.574-2.927-6.205-6.205-6.321c-3.278-0.117-6.554,3.364-11.59,3.161
	c-11.59-0.468-11.006,11.437-21.424,11.122c-3.863-0.117-5.502-3.512-3.746-6.087c1.756-2.576,7.196-11.302,5.151-13.346
	c-1.95-1.951-7.96,1.561-11.862,1.405c-3.901-0.155-6.322-0.937-6.322-0.937l7.961-1.014c-0.156-2.264-3.591-3.556-9.21-3.512
	c-9.99,0.078-8.586,4.293-12.175,4.371s-5.462-3.123-10.847-3.2s-5.385,2.965-5.385,4.058c0,1.093,1.95,3.356,1.639,6.946
	c-0.314,3.59-5.776,8.039-5.776,11.707s0.86,8.585,1.639,8.663c0.779,0.078,3.044-3.825,3.201-8.429
	c6.711-0.624,6.633,1.703,11.55,1.639c5.932-0.078,18.81-11.161,22.4-16.156c3.589-4.995,9.911-2.108,5.854,3.824
	c-4.061,5.932-16.384,13.188-16.236,14.75c0.17,1.776,5.153,1.717,10.851,1.483c22.346-0.918,24.027-12.878,28.721-12.878
	c3.901,0,3.455,1.022,3.667,4.293c0.234,3.59-0.234,8.116-0.234,8.116c-3.512,4.371-12.254,10.302-12.409,13.112
	c-0.155,2.81,6.79,4.371,6.635,6.01c-0.156,1.639-2.654,4.683-4.762,4.839c-2.107,0.157-11.321-2.915-16.39-2.732
	c-8.663,0.313-18.356,11.318-22.165,16.078c-4.761-3.668-13.501-10.693-13.501-10.693l-7.96,6.167l-8.274-7.961l-5.387,6.711
	l-5.539-5.385l-7.024,4.917l-5.854-4.058c-5.542,0.312-16.002,1.873-16.236-4.059c-0.172-4.366,0-16.857,0-22.398
	c0-5.776,3.904-13.346,7.884-13.346c2.967,0,6.479,0.156,8.195,0.156c1.639-2.107,4.37-6.009,8.271-5.931
	c3.903,0.078,9.835,0.078,12.49,0.078c2.652,0,5.546-2.562,5.696-7.336c0.157-4.995,7.491-9.052,12.72-9.053
	c2.89-3.748,6.871-6.635,8.431-6.635c1.56,0,2.42,1.872,3.122,1.951c0.703,0.079,4.994-5.931,5.775-6.165
	c0.781-0.234,2.497,2.575,3.123,2.498c0.624-0.078,4.838-5.385,5.619-5.385c0.779,0,2.184,1.093,2.81,1.093
	c0.624,0,5.462-5.074,6.632-5.23c1.171-0.156,3.123,2.575,3.669,2.653c0.545,0.079,7.412-7.258,8.038-7.258s3.355,2.654,3.98,2.654
	s4.761-5.464,5.698-5.542c0.937-0.078,3.668,2.966,4.604,2.966s7.103-5.229,8.039-5.151s3.278,3.981,4.293,3.902
	c1.013-0.079,6.475-3.59,7.412-3.59s3.358,4.449,4.529,4.605c1.171,0.155,6.633-2.811,7.646-2.42
	c1.017,0.391,2.422,5.621,3.125,5.932c0.702,0.312,7.178-1.952,7.569-1.717c0.391,0.234,1.249,4.839,2.03,5.307
	c0.779,0.468,5.854-0.39,6.398,0c0.545,0.391,0.703,4.059,1.094,4.371c0.388,0.312,7.256-1.482,7.803-1.014s1.405,4.917,1.873,5.229
	c0.468,0.312,6.556-1.795,6.869-1.561c0.313,0.234,2.184,6.01,2.731,6.244c0.547,0.234,5.23-0.546,5.698,0
	c0.468,0.546,0.702,3.901,1.249,4.292c0.545,0.391,5.775-1.249,6.322-0.78c0.545,0.468,2.34,5.151,2.887,5.463
	c0.547,0.312,9.911-4.995,10.536-4.448c0.625,0.546,0.781,9.21,0.781,12.097c3.433-2.81,14.828-8.429,16.311-9.131
	c0,2.03-0.234,7.493-0.234,7.493c1.328,0.078,5.619-0.546,5.933,0c0.312,0.546-5.23,14.049-7.337,17.482
	c4.84-2.888,25.521-16.078,25.912-15.844c0.388,0.234,0.388,5.775,0.388,5.775l6.871-2.263l-1.954,5.619l2.03,1.093
	c-1.326,1.326-3.669,5.698-4.214,7.258c-0.546,1.56-0.546,4.838-2.029,6.399s-10.926,6.634-12.799,11.004
	c3.355,0.468,10.769-0.233,15.062-3.824c4.294-3.591,8.43-8.898,9.601-10.615c2.575-0.625,12.485-5.854,14.516-5.775
	c2.031,0.079,2.342,1.795,2.342,1.795s6.79-3.2,7.649-2.732c0.858,0.468,1.248,3.278,1.248,3.278l5.309-3.356
	c0,0-15.769,25.991-15.769,28.644c0,1.24-0.135,2.906,0.158,4.955c-1.229,1.288-5.556,5.5-8.506,8.078
	c16.232,0.78,30.84-16.783,37.381-16.312c1.095,0.079,0.469,3.045,0.469,4.059c6.556-1.17,17.249-5.542,27.317-9.6
	c-5.151,9.912-12.722,20.761-12.099,23.102c0.626,2.341,6.637,2.107,6.637,2.887c0,0.78-4.606,2.888-4.606,3.747
	s3.98,1.56,3.98,2.497s-28.409,26.458-27.394,27.785c1.015,1.327,14.205-10.693,16.702-10.771s11.628,6.245,11.628,8.976
	c0,2.731-7.649,3.901-7.727,4.838c-0.076,0.937,9.366,4.684,9.366,5.698L236.512,307.386z"/>
<path d="M366.652,150.98c0.781-1.209,2.342-2.927-2.106-1.014c-8.217,3.532-14.791,5.616-23.447,7.923
	c-1.825,0.485-0.251-4.433-3.596-3.556c-13.293,3.484-16.624,15.691-36.097,17.447c1.835-1.521,6.36-5.19,10.498-8.351
	c0.805-0.616-2.458-1.21-2.418-3.629c0.036-2.419,1.643-5.445,3.98-8.195c2.652-3.121,2.908-6.172,4.525-8.897
	c2.541-4.278,5.319-7.809,7.825-11.946c0.396-0.651,0.019-2.063-1.387-1.049c-1.404,1.014-3.358,2.341-4.371,3.122
	c-0.158-4.136-2.989-3.599-4.709-2.97c-1.083,0.397-2.588,1.448-4.031,2.229c-0.025,0.004-0.079-0.858-0.383-1.448
	c-1.096-2.125-5.191,0.112-6.583,0.716c-3.02,1.314-8.25,2.543-10.704,4.651c-6.381,5.475-8.843,12.072-18.111,13.947
	c-9.423,1.906,1.202-4.343,3.013-5.587c1.308-0.899,2.627-1.752,3.843-2.774c3.646-3.06,3.563-10.126,6.509-13.931
	c0.353-0.455,0.971-1.728,0.203-2.141c-2.334-1.257-0.928-2.238,0.13-5.283c0.177-0.512-0.591-1.489-1.517-1.184
	c-2.12,0.698-4.42,1.43-5.561,1.798c-0.381-1.535,0.351-3.542-0.088-5.139c-0.099-0.36-0.465-0.637-0.812-0.467
	c-8.992,4.394-20.406,14.521-25.587,16.627c0.79-2.868,7.249-11.183,7.835-17.152c0.049-0.507,0.018-0.995-0.551-1.139
	c-0.609-0.153-5.298-0.495-5.327,0.211c0.097-2.302,0.176-4.604,0.211-6.908c0.011-0.703-0.563-0.932-1.137-0.656
	c-4.683,2.263-9.297,4.683-13.755,7.366c-2.978,1.793-1.438-0.173-1.529-3.381c-0.062-2.152,0.004-4.537-0.713-6.599
	c-0.079-0.227-0.256-0.502-0.541-0.492c-4.639,0.174-9.165,7.17-11.788,1.514c-0.699-1.51-0.814-2.466-2.451-2.589
	c-4.123-0.309-4.694,1.738-6.212-2.959c-0.092-0.28-0.252-0.435-0.542-0.492c-2.319-0.453-5.04,1.145-6.267-1.74
	c-0.6-1.416-1.057-2.875-1.736-4.257c-0.132-0.269-0.461-0.245-0.697-0.222c-1.674,0.16-3.333,0.797-4.95,1.243
	c-2.506,0.689-1.954-4.094-3.282-4.859c-4.335-2.504-6.219,3.758-8.597-2.94c-0.093-0.265-0.245-0.454-0.542-0.492
	c-5.138-0.674-5.537,0.628-7.888-4.815c-0.172-0.399-0.38-0.512-0.811-0.468c-1.898,0.198-6.651,2.879-7.869,0.075
	c-0.426-0.983-1.209-4.188-2.554-4.314c-3.203-0.301-6.239,4.211-9.049,0.979c-0.505-0.58-2.118-3.553-3.395-3.139
	c-2.449,0.793-6.413,4.644-8.894,1.92c-1.074-1.179-1.818-2.606-3.505-1.971c-2.486,0.938-4.749,3.294-6.94,4.717
	c-1.182,0.767-3.382-3.208-5.012-2.792c-1.013,0.258-1.939,1.35-2.586,2.058c-3.219,3.534-2.799,2.847-6.582,0.881
	c-3.542-1.842-5.634,9.619-10.17,5.377c-3.545-3.314-6.691,4.965-10.979,3.365c-0.993-0.372-2.188,1.105-2.74,1.641
	c-1.174,1.132-2.239,2.417-3.376,3.581c0.572-0.585-2.217-2.109-2.623-2.334c-0.37-0.203-0.792,0.024-1.078,0.263
	c-1.688,1.413-2.994,3.248-4.405,4.927c-0.7,0.832-3.759-1.529-5.409-0.581c-2.195,1.262-4.266,2.704-5.943,4.647
	c-2.268,2.63-7.035,2.358-9.833,4.509c-2.018,1.55-3.346,2.961-4.581,5.188c-3.163,5.706-4.447,8.419-10.988,8.315
	c-14.415-0.228-10.068,5.444-19.646,5.631c-15.069,0.295-12.64,20.457-12.666,30.476c-0.015,5.168-1.156,10.21,4.637,12.062
	c3.23,1.032,7.15,0.416,10.461,0.175c2.835-0.205,5.188,2.323,7.406,3.86c0.216,0.15,0.596,0.074,0.794-0.064
	c2.211-1.548,6.57-4.62,6.634-4.644c0.066-0.025,5.832,4.892,5.832,4.892l5.766-6.644c0,0,4.542,5.629,7.013,8.006
	c0.414,0.398,0.845,0.23,1.262-0.091c2.561-1.985,7.687-5.955,7.687-5.955s13.13,10.596,13.364,10.625
	c0.234,0.029,11.78-13.139,19.829-15.616c5.762-1.774,12.554,2.047,18.303,2.465c2.546,0.185,8.72-6.042,5.738-8.292
	c-1.063-0.803-6.759-3.364-5.289-5.452c1.983-2.811,5.418-5.144,7.956-7.46c1.754-1.6,3.675-3.086,3.845-5.552
	c0.289-4.155,1.557-16.355-6.536-11.636c-2.125,1.24-3.779,3.556-5.598,5.186c-5.659,5.071-11.645,6.321-19.43,7.404
	c-2.945,0.41-10.829-0.351-10.829-1.054c0-0.702,4.813-3.833,6.863-5.609c3.527-3.054,7.736-5.98,10.112-10.312
	c2.581-4.707-3.98-7.727-9.833-2.458c-7.057,6.352-9.131,9.249-13.463,11.122c-7.713,3.336-9.484,3.439-16.799,2.341
	c-2.341-0.351-3.368,1.128-3.922,3.161c-0.527,1.932-0.373,5.342-1.405,5.561c-0.677,0.144-0.702-3.025-0.702-4.975
	c0-4.917,0.697-5.928,2.521-8.072c1.397-2.1,3.344-3.696,4.035-6.093c0.316-1.095-2.883-6.344-1.814-8.429
	c1.17-2.283,6.503-1.297,9.658,0.82c2.542,1.169,5.608,4.19,6.673,1.405c1.581-4.135,15.336-7.961,19.083-3.512
	c-2.722-0.41-5.385,0.234-9.19,1.698c4.39,3.688,7.774,1.923,10.507,1.229c8.868-2.253,11.034-2.664,8.517,3.249
	c-0.735,1.728-3.316,5.453-4.311,7.043c-1.499,2.397-3.156,7.669,1.269,8.603c5.879,1.24,9.863-1.44,13.414-5.799
	c6.165-7.564,11.111-4.462,15.442-6.277c4.52-1.893,8.166-2.605,10.039-0.79c2.958,2.865,3.739,4.933-1.827,11.211
	c-1.449,1.777-3.329,3.253-4.608,5.165c-2.689,4.017-1.886,9.597-4.609,13.447c-1.976,2.79-4.782,5.134-7.068,7.665
	c-4.09,4.523-8.268,10.696-8.559,17.012c-0.631,13.637,6.803,26.04-5.658,36.664c-1.065,0.909-2.472,1.367-2.53,2.935
	c-0.232,6.192-0.992,8.341-6.752,11.336c-0.629,0.328-1.121,1.183-1.092,1.892c0.25,6.145-5.31,6.572-7.65,10.625
	c-2.555,4.428,2.766,9.874-5.257,11.25c-0.923,0.158-1.747,1.745-1.22,2.557c6.453,9.963,20.791,9.177,31.135,7.597
	c3.111-0.475,8.016-10.777,10.052-13.439c4.922-6.431,11.403-11.084,17.322-16.493c5.464-4.991,10.354-11.298,15.46-16.707
	c3.688-3.908,6.307-7.753,7.74-12.959c0.766-2.787,1.493-6.767,1.783-7.896c0.291-1.129,0.937-4.371,0.937-4.371
	s3.318,8.117,5.345,15.805c0.314-6.517,0.585-13.15,0.625-16.585c0.86,2.889,1.054,4.448,1.756,6.985
	c0.403,1.455,0.461,1.113,0.547,0.391c0.468-3.941,1.053-7.22,1.132-11.473c0.703,3.746,3.316,24.351,5.307,34.262
	c1.522-5.307,1.282-21.193,1.754-21.309c0.468-0.115,4.913,10.707,5.989,14.613c1.738,6.297,0.768,12.131-0.797,18.268
	c-2.744,10.74-6.757,21.775-12.364,31.33c-4.846,8.257-15.85,17.154-23.057,27.768c-3.833,5.642-20.659-6.748-25.397-9.034
	c-8.517-4.118-20.07-9.534-29.842-7.808c-2.433,0.43-8.934,2.855-6.279,6.823c1.355,2.026,3.825,2.817,5.959,3.79
	c3.324,1.515,6.199,3.406,8.742,5.69c-0.007,0.004-0.017,0.002-0.025,0.006c-3.417,1.431-6.468,4.838-9.125,7.306
	c-4.5,4.178-7.236,9.842,1.24,11.012c4.936,0.681,16.597-3.358,9.598,5.042c-1.279,1.536-4.048,4.375-3.993,7.168
	c0.252,12.893,13.748-2.544,15.588-2.912c1.171-0.233,9.168,7.703,14.923,9.167c3.461,0.881,6.402-0.085,9.859,1.509
	c3.331,1.534,6.175,5.422,8.906,7.909c4.581,4.173,14.584,9.183,13.509-1.23c-0.249-2.392-4.452-7.912-1.567-8.199
	c6.458-0.64,11.76-4.846,16.896-8.506c6.322-4.507,12.388-8.496,19.496-11.645c-0.112,0.05,9.947-4.979,9.991-2.326
	c0.04,2.305,3.501,7.769,4.679,7.949c1.178,0.183,84.45-59.185,126.464-88.687c0.63-0.443,1.54-1.636,0.937-2.441
	c-0.681-0.907-9.311-3.829-9.153-4.492s6.551-1.763,7.299-4.683c0.857-3.357-10.404-12.001-14.99-9.167
	c-4.282,2.645-7.487,7.527-13.692,10.376c3.98-4.176,7.68-7.224,9.893-9.37c5.302-5.139,11.766-10.804,17.11-16.385
	c1.303-1.36,1.562-2.81,1.016-2.965c-5.797-1.643-2.303-1.99,0.178-4.114c0.508-0.435,0.91-1.634,0.204-2.141
	c-3.168-2.279-8.477,0.245-5.494-5.53C358.982,163.242,362.985,156.657,366.652,150.98z M360.176,176.189
	c-2.731,1.014-3.518,1.214-4.745,2.865c-0.31,0.416-0.891,1.469-0.39,1.97c0.845,0.844,3.669,0.675,4.031,1.002
	c-1.745,2.903-2.718,2.741-4.079,4.05c-3.782,3.646-7.616,7.241-11.41,10.878c-2.7,2.59-12.296,9.331-12.111,13.802
	c0.017,0.416,0.176,0.688,0.583,0.795c3.238,0.857,10.104-6.327,12.322-7.987c4.635-3.466,7.4-1.975,11.739,1.225
	c5.952,4.388-0.563,4.845-3.23,7.317c-0.508,0.472-1.211,1.588-0.654,2.242c1.427,1.682,6.149,2.736,9.621,4.453
	c-5.114,3.384-122.034,85.265-125.458,87.646c-0.695-2.627-2.601-6.755-2.469-9.174c0.053-0.484-0.088-1.377-0.821-1.113
	c-10.564,3.81-20.222,8.2-29.346,14.791c-7.308,5.278-12.095,7.664-20.597,9.832c-1.771,0.451-2.291,1.557-2.724,3.115
	c-0.375,1.348,1.621,3.181,2.193,4.192c2.206,2.655,1.635,4.856-1.714,6.6c-1.421-0.758-2.756-1.648-4-2.673
	c-3.119-2.297-5.626-5.313-8.559-7.819c-4.063-3.472-7.776-3.258-12.951-3.647c-5.68-0.425-11.603-5.784-15.682-9.373
	c-0.536-0.474-1.352,0.524-1.575,0.874c-2.475,2.863-7.977,8.131-10.084,7.194c-2.107-0.937-1.567-5.577,0.898-7.685
	c1.657-2.052,3.371-3.998,4.772-6.237c0.977-1.562,0.717-3.476-1.416-3.671c-4.732-0.436-23.081,2.178-13.357-6.869
	c2.897-2.698,5.396-5.976,8.283-5.976c0.937,0,5.157,4.461,5.971,4.916c2.927,1.64,3.044,0.938,1.192-1.986
	c-4.942-7.803-11.229-11.2-19.208-15.292c-3.953-2.026,3.031-4.028,6.66-3.794c4.789,0.31,18.46,5.462,24.153,8.116
	c7.313,3.413,14.209,7.999,21.76,10.869c5.107,1.939,10.459-7.54,12.856-10.556c5.751-7.238,12.644-12.176,16.988-20.793
	c3.847-7.632,7.312-15.677,10.128-23.708c2.572-7.337,4.876-14.961,4.559-22.794c-0.202-4.951-6.505-21.717-10.055-21.404
	c-1.875,0.166-0.273,12.098-0.82,21.619c-0.858-4.019-2.44-22.346-4.275-34.17c-0.227-1.471-2.074,0.505-2.155,1.197
	c-0.468,3.941-0.009,6.749-0.36,10.104c-0.506-2.185-0.664-3.316-1.366-5.854c-0.446-1.613-1.482-3.901-1.816,0.307
	c-0.426,5.373,0.218,5.509,0.373,14.483c-2.224-6.945-2.927-12.214-4.154-15.332c-0.146-0.37-0.669-0.339-0.98-0.107
	c-2.008,1.508-3.472,9.908-4.278,13.135c-1.95,7.811-6.858,12.525-12.558,17.862c-4.523,4.233-7.664,9.57-12.411,13.653
	c-8.573,7.378-15.759,14.422-21.934,23.959c-2.297,3.551-4.933,4.117-9.965,4.077c-14.692-0.117-18.173-2.894-21.307-6.731
	c2.575-0.292,5.045,0.146,6.19-2.894c0.589-1.564,0.498-2.944,0.5-4.588c0.005-5.146,1.719-5.646,5.05-9.19
	c2.667-2.837,2.217-6.573,5.155-8.439c4.339-2.756,5.072-2.703,5.186-7.58c0.134-5.682,4.718-8.016,8.153-12.25
	c2.883-3.554,1.987-8.33,1.998-12.647c0.035-11.131-4.075-20.929,2.961-30.991c3.042-4.351,7.381-7.607,10.438-11.927
	c3.474-4.908,2.405-11.056,6.949-15.913c2.762-2.95,6.384-6.896,6.309-11.279c-0.053-3.155-3.525-7.634-7.057-7.093
	c-3.139,0.48-5.726,1.924-8.766,2.898c-3.24,1.038-6.064-0.285-9.109,1.54c-3.909,2.342-6.256,6.218-10.011,8.722
	c-6.679,4.448-8.239-3.045-5.762-7.262c1.09-1.855,2.275-4.031,2.824-6.138c0.41-1.568,0.125-5.863-4.324-4.458
	s-8.136,2.78-13.58,1.551c1.463-0.615,3.375-0.306,6.029-0.644c0.827-0.105,1.972-0.677,1.679-1.438
	c-2.104-5.445-12.746-5.162-17.103-2.714c-3.238,1.818-5.149,3.691-9.334,1.614c-2.596-1.289-6.688-2.715-9.52-1.307
	c-3.748,1.864-4.47,4.747-2.87,8.503c2.337,5.493-4.006,10.438-5.085,15.471c-0.556,2.589,0.214,7.25,1.763,9.555
	c0.216,0.323,0.686,0.3,0.98,0.107c1.722-1.128,2.74-3.023,3.293-5c1.785-6.38,6.627-1.081,11.174-1.675
	c3.986-0.52,7.566-2.77,10.741-5.132c2.524-1.878,4.663-3.872,6.993-5.984c0.622-0.569,7.624-9.773,10.917-7.288
	c5.502,4.156-19.199,17.641-17.443,20.078c3.776,5.239,24.032,0.714,29.794-2.472c2.795-1.545,5.1-3.842,7.315-6.099
	c1.491-1.519,5.748-5.079,6.087,1.443c0.247,4.768-0.462,7.758-4.167,11.14c-3.924,3.58-8.508,7.906-8.417,9.744
	c0.176,3.482,6.907,4.741,6.966,5.941c0.059,1.2-2.634,4.361-6.527,3.395s-5.864-1.961-8.967-2.534
	c-6.124-1.131-10.871,1.025-15.823,4.502c-4.086,2.87-10.624,10.939-11.209,10.998c-0.585,0.058-13.522-10.39-13.522-10.39
	l-7.843,6.146c0,0-4.8-5.211-7.48-7.791c-0.51-0.49-1.143-0.113-1.527,0.364c-1.695,2.113-5.089,6.34-5.089,6.34
	s-2.596-3.711-4.31-5.378c-0.274-0.266-0.64-0.345-0.98-0.107c-2.16,1.512-5.447,5.396-7.749,3.8
	c-4.332-3.003-5.104-2.992-10.481-2.699c-3.755,0.204-9.629,0.547-9.786-5.026c-0.077-2.729-0.037-5.464-0.029-8.193
	c0.022-8.756-2.334-24.218,11.462-24.479c9.249-0.175,10.719-5.85,17.326-5.795c3.461,0.029,7.503,1.393,10.417-1.107
	c5.592-4.798,0.827-10.297,10.571-14.155c1.361-0.538,3.64-0.085,4.738-1.026c2.744-2.353,6.153-7.928,10.476-4.421
	c0.203,0.165,0.607,0.061,0.794-0.064c3.115-2.083,4.011-6.582,8.103-3.604c0.344,0.25,0.811-0.066,1.078-0.263
	c1.134-0.835,2.063-1.961,3.015-2.995c3.845-4.17,2.166-0.299,4.847-0.984c4.019-1.025,4.851-6.636,9.792-2.628
	c0.212,0.172,0.594,0.05,0.793-0.064c1.872-1.07,3.368-2.913,4.892-4.404c3.111-3.044,2.91-1.916,6.334-0.136
	c0.395,0.206,0.759-0.039,1.076-0.262c1.162-0.821,2.052-1.96,2.996-3.015c3.037-3.387,3.448-0.641,6.23,0.702
	c1.385,0.669,4.997-2.795,5.854-3.419c4.218-3.078,4.651,3.563,8.107,1.812c1.621-0.819,5.447-3.965,7.258-1.827
	c1.019,1.2,1.734,2.344,3.053,3.199c3.904,2.532,6.304-6.489,9.36,0.985c1.046,2.558,1.445,2.831,4.108,2.22
	c5.974-1.37,3.924-0.967,6.717,3.726c0.406,0.685,2.424,0.352,2.857,0.337c3.933-0.136,3.472,0.078,4.52,3.789
	c0.067,0.237,0.265,0.491,0.541,0.492c1.396,0.001,2.744-0.33,4.114-0.59c3.534-0.675,3.947,2.021,5.136,4.557
	c0.106,0.146,0.249,0.229,0.428,0.247c1.306-0.047,2.502-0.429,3.761-0.775c3.867-1.065,3.395,0.863,4.833,4.249
	c0.523,1.229,0.811,1.205,2.06,1.231c4.318,0.09,3.773-0.195,5.35,3.778c0.097,0.24,0.244,0.483,0.542,0.492
	c1.469,0.043,2.848-0.322,4.288-0.62c2.987-0.617,3.187,3.219,4.495,5.056c0.172,0.24,0.428,0.271,0.697,0.222
	c2.204-0.402,4.363-1.858,6.349-2.831c5.729-2.805,4.092,6.154,4.116,9.708c0.007,0.939,0.842,0.886,1.418,0.458
	c3.977-2.948,14.866-9.134,15.305-8.958c0.438,0.176-0.563,4.886-0.646,6.862c-0.013,0.32,0.19,0.808,0.584,0.795
	c3.836-0.117,5.772-1.709,4.188,2.507c-1.674,4.447-4.917,9.766-6.087,15.034c4.507-1.727,11.948-6.975,17.396-10.365
	c2.384-1.482,4.774-2.954,7.182-4.396c2.814-1.685,1.62,1.377,1.635,3.838c0.002,0.458,0.333,0.942,0.853,0.771
	c2.118-0.698,3.666-1.994,5.773-1.935c-0.421,1.213-0.819,2.868-1.259,4.332c0.731,0.41,2.107,0.702,2.107,0.702
	s-2.604,3.016-3.729,5.15c-1.147,2.179-1.228,6.551-2.998,8.039c-4.376,3.671-9.494,5.892-12.534,10.972
	c-0.272,0.457-0.633,1.81,0.272,1.877c8.273,0.616,14.351-2.343,20.035-8.129c1.828-1.861,3.807-5.8,6.289-6.815
	c2.261-0.925,13.394-7.593,14.655-3.967c0.188,0.533,0.634,0.566,1.095,0.352c2.349-1.092,7.002-4.308,7.803,0.194
	c0.094,0.524,0.714,0.593,1.094,0.352c1.77-1.119,2.396-2.171,4.504-3.771c-1.247,1.99-7.716,9.619-10.456,15.765
	c-2.557,5.736-10.635,11.531-4.683,16.39c-2.186,2.458-4.316,3.905-6.83,6.01c-3.354,2.81-6.126,4.137,1.601,3.747
	c6.924-0.351,9.354-2.025,15.344-5.36c2.244-1.248,18.956-13.826,18.429-7.368c-0.044,0.51,0.36,0.875,0.853,0.771
	c9.437-2.008,22.505-8.687,26.992-10.365c-1.833,3.317-9.947,13.516-12.469,21.544C351.609,176.771,357.287,174.745,360.176,176.189
	z"/>
<path d="M160.651,348.594"/>
</svg>
