<?xml version="1.0" encoding="utf-8"?>
<!-- Generator: Adobe Illustrator 16.0.4, SVG Export Plug-In . SVG Version: 6.00 Build 0)  -->
<!DOCTYPE svg PUBLIC "-//W3C//DTD SVG 1.1//EN" "http://www.w3.org/Graphics/SVG/1.1/DTD/svg11.dtd">
<svg version="1.1" id="Layer_1" xmlns="http://www.w3.org/2000/svg" xmlns:xlink="http://www.w3.org/1999/xlink" x="0px" y="0px"
	 width="500px" height="500px" viewBox="0 0 500 500" enable-background="new 0 0 500 500" xml:space="preserve">
<g>
	<path fill="#ED1C24" d="M306.051,154.359c-75.459,0-136.63,61.171-136.63,136.63c0,75.458,61.171,136.631,136.63,136.631
		c75.461,0,136.631-61.173,136.631-136.631C442.682,215.53,381.512,154.359,306.051,154.359z M306.051,195.536
		c24.334,0,46.526,9.12,63.387,24.108L216.912,325.137c-4.065-10.607-6.315-22.111-6.315-34.147
		C210.597,238.272,253.332,195.536,306.051,195.536z M306.051,386.444c-26.428,0-50.342-10.742-67.626-28.095L392.938,251.48
		c5.487,12.043,8.567,25.411,8.567,39.509C401.506,343.707,358.77,386.444,306.051,386.444z"/>
	<path d="M255.672,367.416c5.458,6.241,26.206,13.239,44.297,13.101c40.24-0.311,88.901-25.733,96.856-80.949
		c3.276-6.861,5.459-8.891,9.047-10.45c3.588-1.558,10.139-1.871,13.415-4.679c3.274-2.807,7.485-7.331,13.881-6.706
		c6.395,0.623,16.062,6.551,21.678,6.706c5.615,0.156,8.891-1.248,9.048-5.77c0.157-4.524-15.441-8.733-15.441-10.452
		c0-1.714,7.176-3.433,11.698-3.117c4.522,0.31,16.064-1.562,16.377-5.928c0.312-4.367-11.391-8.814-24.175-9.203
		c-5.146-0.156-8.892,0.001-9.982,1.092c-1.092,1.092-2.574,2.495-2.574,2.495c-0.233-10.411,16.261-22.226,16.261-27.022
		c0-2.573-1.287-3.743-3.743-3.743c-2.458,0-22.694,7.019-33.34,24.448c0.352-3.159,0.442-4.954-0.468-5.03
		c-4.211-0.351-6.784,0-9.008,1.287c-2.223,1.287-125.126,87.267-136.513,95.688c10.294,5.147,23.863,10.607,44.141,12.011
		c-17.704-0.547-24.88-3.434-39.151-8.189C272.985,351.741,264.405,364.142,255.672,367.416z"/>
	<path fill="#FFFFFF" d="M477.111,258.82c0.176-6.551-18.131-9.591-24.798-9.65c-6.61-0.059-9.769,0.351-11.295,1.795
		c2.085-8.122,9.901-13.251,14.207-20.223c1.598-2.585,2.771-7.114-0.652-8.997c-3.88-2.136-11.173,2.643-14.261,4.271
		c-8.295,4.371-15.314,10.743-20.647,18.397c-1.266-9.259-14.114,0.185-19.44,3.882c-14.623,10.15-29.208,20.357-43.794,30.561
		c-27.921,19.533-84.473,59.722-84.498,60.329c-0.025,0.604,5.173,3.351,5.147,3.393c-4.64,9.866-10.957,17.665-22.46,25.033
		c8.188,9.592,28.837,13.826,44.645,13.763c19.576-0.076,38.853-5.752,52.854-13.689c14.502-8.222,26.307-20.443,34.574-34.849
		c4.338-7.555,7.2-15.89,9.256-24.318c1.391-5.703,2.133-10.901,6.266-15.498c3.146-3.498,8.841-3.81,13.135-5.021
		c3.606-1.021,6.092-3.931,8.962-6.131c5.591-4.285,11.559-2.348,17.434-0.105c6.354,2.424,16.581,6.302,21.18,1.892
		c7.11-6.817-9.384-13.919-12.951-15.65c4.095-2.104,10.353-2.397,12.75-2.689C469.318,264.509,476.984,263.597,477.111,258.82z
		 M394.657,307.004c-1.612,7.506-4.419,14.694-7.853,21.538c-11.147,22.226-31.108,38.208-54.278,45.97
		c-11.043,3.702-23.398,5.03-32.402,4.797c-19.496-0.508-35.251-4.718-42.891-11.426c5.926-2.573,18.014-14.035,21.209-24.251
		c19.497,8.109,40.477,7.642,40.477,7.642s-8.893-0.311-23.083-4.289c-9.041-2.535-17.868-5.775-21.447-8.034
		c23.557-17.256,48.98-33.782,72.898-50.528c4.442-3.111,8.892-6.211,13.337-9.318c4.819,4.408,11.336,8.885,17.766,9.931
		c0.614,0.101,1.225,0.041,1.82-0.136c-1.738,4.237-1.585,8.264,4.154,10.315c4.443,1.589,8.896,0.138,12.896-2.633
		C395.791,299.826,395.52,302.981,394.657,307.004z M475.357,259.094c-0.312,4.522-28.272,4.77-27.958,8.852
		c0.059,0.76,3.831,2.751,5.732,3.859c2.104,1.229,4.046,2.23,6.131,3.68c8.081,5.62,0.829,7.375-4.417,7.457
		c-11.573,0.183-19.304-11.147-30.933-3.962c-1.022,0.633-2.625,2.091-3.539,2.879c-3.743,3.22-7.805,3.886-12.489,5.067
		c-0.51,0.13-0.994,0.282-1.46,0.454c1.213-1.617,2.222-3.231,3.131-4.618c2.322-3.548,0.919-4.718-1.751-1.012
		c-5.553,7.71-13.58,17.47-23.657,13.865c-3.648-1.304-2.55-6.046-0.237-9.314c2.31-3.266,6.053-9.193,5.352-9.504
		c-0.702-0.314-2.808,3.275-5.85,7.019c-1.494,1.841-4.544,2.296-7.998,0.874c-4.192-1.729-8.499-4.477-12.022-7.521
		c9.416-6.583,18.825-13.172,28.254-19.739c4.478-3.122,8.956-6.238,13.444-9.343c2.409-1.667,13.866-9.24,13.162-1.246
		c-0.027,0.325-0.137,3.908,1.099,1.692c6.328-11.349,19.345-21.5,32.521-24.201c6.287-1.288,1.158,5.774,0.372,6.748
		c-2.248,2.783-4.683,5.409-6.923,8.197c-3.28,4.073-6.102,8.367-6.46,13.655c-0.033,0.487-0.574,3.948,1.312,1.916
		c2.723-2.931,5.414-3.866,10.443-3.749C461.148,251.345,475.67,254.571,475.357,259.094z"/>
	<path d="M237.113,307.211c-2.652-2.573-4.836-6.162-3.667-9.826c-13.646,4.834-19.652,7.955-26.437,12.789
		c-6.785,4.835-15.364,11.777-21.056,11.62c-5.26-0.144-3.82,2.339-2.884,3.12c0.936,0.779,5.224,9.358,2.183,11.308
		c-3.042,1.95-8.719-2.802-15.675-9.592c-3.275-3.199-5.147-4.934-12.049-4.7c-6.421,0.219-15.164-7.126-17.897-9.592
		c-3.217,5.907-8.423,8.247-10.353,8.306c-1.931,0.059-3.744-2.106-3.685-4.62c0.058-2.516,8.305-10.119,8.305-12.225
		s-10.997-0.41-14.447-0.468c-3.451-0.059-5.147-1.638-5.323-3.686c-0.175-2.047,11.756-11.932,12.692-11.932
		c0.936,0,5.381,4.036,7.311,5.03c-8.656-14.447-20.938-13.277-21.231-17.722c-0.168-2.572,2.866-3.61,8.13-3.627
		c17.839-0.059,44.744,18.94,49.599,19.067c2.223,0.06,7.604-8.013,10.646-11.405c3.041-3.392,10.06-10.061,14.856-17.196
		c4.796-7.135,15.675-33.923,15.792-44.802c0.117-10.879-6.902-23.863-8.54-23.512c-1.638,0.351-1.17,22.577-1.17,22.577
		l-5.498-35.445l-1.404,11.815l-2.105-7.603l-0.702,16.143c0,0-4.094-14.739-5.147-15.207c-1.053-0.468-2.807,13.57-5.849,19.067
		c-3.042,5.498-9.358,10.06-12.048,13.102s-5.147,6.785-8.306,9.827c-3.159,3.041-11.23,9.007-15.675,14.388
		c-4.445,5.381-8.891,11.932-11.113,15.208c-9.592,1.637-25.618,1.755-30.415-7.37c3.159-0.468,5.381-0.819,6.2-2.574
		c0.819-1.754,0.117-5.381,0.117-9.592c2.223-1.404,5.147-3.978,7.955-7.136c0-2.105,0.234-2.807,0-4.562
		c1.755-0.702,5.264-3.275,7.604-4.796c0.117-4.914,0.117-5.498,0.234-8.423c3.275-2.105,7.721-6.667,9.709-9.943
		c0.468-3.393,0.117-7.019,0.351-12.634c0.234-5.615-1.904-9.708-1.989-14.622c-0.233-13.687,14.623-22.928,16.26-27.373
		c1.638-4.445,1.404-7.721,2.924-10.762c1.521-3.041,9.241-8.422,9.359-14.154c0.051-2.573-2.925-6.2-6.2-6.316
		c-3.275-0.118-6.549,3.361-11.581,3.158c-11.581-0.467-10.998,11.429-21.408,11.113c-3.86-0.117-5.498-3.509-3.743-6.083
		c1.754-2.573,7.19-11.293,5.147-13.335c-1.949-1.949-7.955,1.56-11.854,1.404c-3.898-0.155-6.316-0.936-6.316-0.936l7.955-1.014
		c-0.156-2.262-3.588-3.553-9.203-3.509c-9.981,0.078-8.58,4.29-12.166,4.367c-3.586,0.078-5.458-3.12-10.838-3.197
		c-5.381-0.078-5.381,2.963-5.381,4.055c0,1.092,1.948,3.354,1.638,6.941c-0.314,3.587-5.772,8.032-5.772,11.698
		c0,3.666,0.859,8.579,1.638,8.656c0.778,0.078,3.042-3.821,3.199-8.422c6.706-0.623,6.627,1.702,11.541,1.638
		c5.927-0.078,18.795-11.152,22.383-16.144c3.586-4.991,9.903-2.106,5.849,3.821c-4.058,5.928-16.372,13.178-16.223,14.739
		c0.169,1.775,5.148,1.715,10.842,1.481c22.328-0.917,24.008-12.868,28.698-12.868c3.898,0,3.453,1.021,3.665,4.29
		c0.233,3.587-0.234,8.109-0.234,8.109c-3.51,4.368-12.245,10.294-12.4,13.102c-0.155,2.807,6.785,4.367,6.629,6.005
		c-0.155,1.637-2.652,4.679-4.758,4.835c-2.105,0.157-11.312-2.913-16.377-2.729c-8.656,0.312-18.342,11.309-22.147,16.065
		c-4.757-3.666-13.491-10.684-13.491-10.684l-7.955,6.162l-8.267-7.955l-5.383,6.706l-5.534-5.381l-7.019,4.914l-5.849-4.055
		c-5.538,0.312-15.989,1.872-16.223-4.056c-0.171-4.363,0-16.844,0-22.381c0-5.771,3.9-13.335,7.877-13.335
		c2.965,0,6.475,0.155,8.189,0.155c1.637-2.106,4.367-6.004,8.265-5.926c3.9,0.077,9.828,0.077,12.48,0.077
		c2.65,0,5.542-2.56,5.692-7.33c0.157-4.991,7.485-9.045,12.71-9.046c2.888-3.744,6.865-6.629,8.424-6.629
		c1.56,0,2.418,1.871,3.121,1.95c0.702,0.079,4.99-5.927,5.77-6.161c0.781-0.234,2.495,2.574,3.12,2.496
		c0.623-0.078,4.834-5.381,5.615-5.381c0.778,0,2.182,1.092,2.807,1.092c0.624,0,5.458-5.069,6.627-5.226
		c1.17-0.156,3.12,2.573,3.667,2.651c0.545,0.079,7.406-7.252,8.031-7.252s3.353,2.652,3.978,2.652s4.758-5.46,5.693-5.538
		c0.936-0.078,3.665,2.964,4.601,2.964c0.936,0,7.097-5.225,8.033-5.147c0.936,0.078,3.275,3.979,4.29,3.9
		c1.013-0.079,6.47-3.588,7.406-3.588c0.936,0,3.356,4.446,4.526,4.601c1.169,0.156,6.627-2.808,7.64-2.418
		c1.017,0.39,2.42,5.616,3.122,5.928c0.702,0.312,7.172-1.951,7.563-1.717c0.392,0.234,1.249,4.835,2.029,5.304
		c0.779,0.468,5.849-0.39,6.394,0c0.544,0.39,0.702,4.056,1.093,4.368c0.387,0.312,7.25-1.481,7.797-1.014
		c0.546,0.468,1.404,4.914,1.872,5.225s6.551-1.794,6.863-1.56c0.312,0.234,2.183,6.005,2.729,6.239s5.226-0.545,5.694,0
		c0.467,0.546,0.702,3.898,1.248,4.289c0.545,0.391,5.77-1.247,6.317-0.779c0.544,0.468,2.337,5.147,2.884,5.458
		c0.546,0.312,9.903-4.991,10.528-4.445c0.625,0.545,0.78,9.203,0.78,12.088c3.431-2.808,14.817-8.423,16.298-9.125
		c0,2.028-0.233,7.487-0.233,7.487c1.327,0.078,5.614-0.546,5.928,0c0.312,0.545-5.227,14.039-7.332,17.469
		c4.836-2.886,25.502-16.065,25.893-15.831c0.388,0.234,0.388,5.77,0.388,5.77l6.865-2.261l-1.952,5.615l2.029,1.092
		c-1.326,1.325-3.667,5.693-4.212,7.253c-0.545,1.559-0.545,4.834-2.026,6.394c-1.482,1.561-10.917,6.629-12.79,10.997
		c3.353,0.467,10.761-0.233,15.051-3.821s8.422-8.891,9.592-10.606c2.573-0.625,12.477-5.85,14.505-5.771
		c2.029,0.079,2.34,1.794,2.34,1.794s6.785-3.198,7.644-2.73c0.858,0.468,1.248,3.275,1.248,3.275l5.303-3.353
		c0,0-15.755,25.971-15.755,28.622c0,1.239-0.136,2.904,0.157,4.951c-1.229,1.287-5.551,5.496-8.499,8.072
		c16.22,0.779,30.816-16.77,37.353-16.299c1.093,0.079,0.468,3.042,0.468,4.056c6.551-1.17,17.236-5.537,27.297-9.592
		c-5.147,9.903-12.713,20.744-12.09,23.084c0.625,2.339,6.631,2.105,6.631,2.885c0,0.779-4.602,2.885-4.602,3.743
		c0,0.858,3.977,1.56,3.977,2.495c0,0.936-28.387,26.437-27.373,27.763c1.015,1.326,14.195-10.685,16.689-10.762
		c2.496-0.077,11.62,6.24,11.62,8.969s-7.645,3.899-7.721,4.834c-0.077,0.936,9.358,4.68,9.358,5.694L237.113,307.211z"/>
	<path fill="#FFFFFF" d="M367.152,150.927c0.78-1.208,2.34-2.924-2.105-1.014c-8.21,3.53-14.779,5.611-23.429,7.917
		c-1.824,0.485-0.25-4.429-3.593-3.553c-13.283,3.482-16.611,15.679-36.067,17.433c1.833-1.521,6.354-5.186,10.488-8.345
		c0.805-0.616-2.456-1.209-2.416-3.626c0.036-2.418,1.642-5.441,3.978-8.189c2.65-3.119,2.906-6.168,4.521-8.89
		c2.539-4.274,5.315-7.803,7.819-11.937c0.395-0.651,0.019-2.062-1.386-1.048c-1.403,1.014-3.355,2.34-4.368,3.12
		c-0.156-4.133-2.986-3.596-4.704-2.968c-1.083,0.397-2.586,1.447-4.029,2.227c-0.025,0.003-0.078-0.858-0.381-1.446
		c-1.096-2.124-5.188,0.111-6.579,0.715c-3.018,1.313-8.243,2.542-10.695,4.647c-6.375,5.47-8.836,12.062-18.097,13.936
		c-9.416,1.905,1.2-4.339,3.01-5.583c1.307-0.898,2.625-1.751,3.84-2.772c3.643-3.057,3.561-10.119,6.504-13.919
		c0.353-0.456,0.971-1.727,0.202-2.14c-2.332-1.256-0.927-2.236,0.13-5.279c0.177-0.512-0.59-1.488-1.515-1.184
		c-2.119,0.697-4.416,1.43-5.557,1.797c-0.38-1.534,0.351-3.539-0.087-5.135c-0.1-0.36-0.466-0.637-0.812-0.467
		c-8.985,4.39-20.391,14.509-25.567,16.614c0.79-2.866,7.243-11.174,7.828-17.139c0.05-0.506,0.019-0.995-0.55-1.138
		c-0.608-0.152-5.293-0.495-5.322,0.211c0.097-2.301,0.176-4.601,0.21-6.903c0.012-0.702-0.562-0.931-1.135-0.655
		c-4.68,2.26-9.291,4.679-13.745,7.36c-2.976,1.792-1.437-0.173-1.528-3.379c-0.062-2.15,0.004-4.534-0.712-6.594
		c-0.079-0.227-0.256-0.502-0.541-0.492c-4.635,0.174-9.157,7.165-11.778,1.513c-0.698-1.509-0.813-2.464-2.449-2.588
		c-4.12-0.309-4.69,1.737-6.208-2.956c-0.091-0.279-0.252-0.435-0.541-0.492c-2.317-0.453-5.036,1.144-6.262-1.738
		c-0.6-1.415-1.057-2.873-1.735-4.254c-0.131-0.269-0.46-0.245-0.696-0.222c-1.672,0.16-3.33,0.797-4.946,1.242
		c-2.504,0.689-1.952-4.091-3.279-4.855c-4.332-2.502-6.215,3.755-8.591-2.938c-0.093-0.265-0.245-0.453-0.541-0.492
		c-5.134-0.673-5.533,0.628-7.881-4.812c-0.172-0.398-0.38-0.512-0.81-0.467c-1.897,0.197-6.646,2.877-7.863,0.075
		c-0.425-0.982-1.208-4.185-2.551-4.311c-3.2-0.301-6.234,4.208-9.042,0.978c-0.504-0.579-2.116-3.55-3.392-3.137
		c-2.448,0.792-6.409,4.64-8.887,1.918c-1.072-1.178-1.816-2.604-3.502-1.969c-2.484,0.938-4.745,3.292-6.935,4.713
		c-1.181,0.766-3.379-3.206-5.008-2.79c-1.013,0.258-1.938,1.349-2.584,2.056c-3.217,3.531-2.797,2.845-6.577,0.88
		c-3.539-1.84-5.629,9.611-10.162,5.373c-3.542-3.311-6.687,4.962-10.971,3.362c-0.993-0.371-2.186,1.105-2.738,1.64
		c-1.174,1.131-2.237,2.415-3.374,3.578c0.572-0.585-2.215-2.107-2.622-2.333c-0.369-0.203-0.791,0.024-1.076,0.263
		c-1.687,1.412-2.992,3.245-4.402,4.923c-0.7,0.831-3.755-1.528-5.404-0.58c-2.193,1.261-4.263,2.701-5.938,4.643
		c-2.266,2.629-7.029,2.356-9.827,4.506c-2.016,1.549-3.342,2.959-4.577,5.185c-3.16,5.702-4.443,8.412-10.979,8.309
		c-14.403-0.227-10.06,5.44-19.63,5.627c-15.058,0.295-12.63,20.441-12.656,30.452c-0.015,5.164-1.155,10.203,4.633,12.053
		c3.228,1.031,7.145,0.415,10.453,0.174c2.833-0.205,5.184,2.322,7.4,3.858c0.216,0.149,0.596,0.074,0.793-0.064
		c2.21-1.547,6.565-4.616,6.629-4.64c0.066-0.025,5.827,4.888,5.827,4.888l5.761-6.639c0,0,4.538,5.625,7.008,8
		c0.413,0.397,0.844,0.23,1.261-0.091c2.559-1.983,7.68-5.95,7.68-5.95s13.12,10.587,13.354,10.617
		c0.234,0.029,11.771-13.129,19.813-15.604c5.758-1.773,12.544,2.045,18.289,2.462c2.544,0.185,8.713-6.038,5.733-8.286
		c-1.062-0.802-6.754-3.361-5.284-5.448c1.981-2.808,5.414-5.139,7.949-7.455c1.753-1.598,3.672-3.083,3.842-5.547
		c0.289-4.151,1.555-16.342-6.531-11.627c-2.124,1.239-3.776,3.553-5.593,5.182c-5.655,5.067-11.636,6.316-19.415,7.398
		c-2.943,0.409-10.82-0.351-10.82-1.053c0-0.702,4.809-3.83,6.858-5.604c3.523-3.052,7.729-5.975,10.104-10.305
		c2.579-4.703-3.977-7.72-9.826-2.456c-7.051,6.347-9.124,9.241-13.453,11.113c-7.708,3.333-9.477,3.436-16.786,2.339
		c-2.339-0.351-3.365,1.126-3.919,3.158c-0.526,1.93-0.373,5.338-1.403,5.557c-0.677,0.143-0.702-3.023-0.702-4.972
		c0-4.913,0.696-5.923,2.519-8.066c1.396-2.099,3.341-3.693,4.032-6.089c0.316-1.094-2.88-6.338-1.813-8.422
		c1.17-2.281,6.498-1.296,9.651,0.819c2.541,1.168,5.604,4.188,6.667,1.404c1.58-4.132,15.325-7.955,19.068-3.509
		c-2.72-0.41-5.381,0.233-9.183,1.696c4.387,3.685,7.768,1.922,10.499,1.229c8.861-2.252,11.025-2.662,8.51,3.246
		c-0.734,1.726-3.313,5.449-4.308,7.038c-1.497,2.395-3.153,7.663,1.269,8.596c5.875,1.239,9.855-1.438,13.403-5.794
		c6.16-7.559,11.102-4.459,15.43-6.272c4.517-1.892,8.16-2.603,10.031-0.79c2.956,2.863,3.736,4.929-1.826,11.202
		c-1.448,1.776-3.326,3.251-4.604,5.161c-2.687,4.014-1.884,9.59-4.606,13.437c-1.974,2.788-4.778,5.13-7.062,7.658
		c-4.087,4.521-8.261,10.688-8.552,16.999c-0.63,13.627,6.798,26.02-5.653,36.636c-1.063,0.908-2.469,1.366-2.527,2.932
		c-0.232,6.188-0.991,8.335-6.747,11.328c-0.628,0.328-1.12,1.182-1.091,1.891c0.25,6.14-5.306,6.566-7.644,10.617
		c-2.553,4.424,2.764,9.866-5.253,11.241c-0.923,0.158-1.746,1.744-1.219,2.554c6.448,9.956,20.774,9.171,31.11,7.591
		c3.109-0.473,8.01-10.768,10.044-13.427c4.919-6.427,11.395-11.076,17.309-16.48c5.459-4.987,10.345-11.289,15.449-16.693
		c3.685-3.905,6.302-7.747,7.733-12.949c0.766-2.785,1.492-6.762,1.782-7.891c0.291-1.128,0.936-4.367,0.936-4.367
		s3.315,8.111,5.34,15.792c0.315-6.512,0.585-13.14,0.625-16.572c0.859,2.886,1.053,4.444,1.754,6.979
		c0.402,1.453,0.461,1.112,0.547,0.39c0.468-3.938,1.053-7.214,1.131-11.464c0.702,3.744,3.314,24.332,5.303,34.235
		c1.521-5.302,1.281-21.177,1.752-21.292c0.468-0.115,4.91,10.699,5.984,14.603c1.737,6.292,0.768,12.122-0.797,18.253
		c-2.741,10.731-6.752,21.757-12.354,31.305c-4.842,8.251-15.837,17.141-23.039,27.746c-3.829,5.637-20.643-6.743-25.377-9.028
		c-8.51-4.113-20.055-9.526-29.818-7.801c-2.431,0.43-8.927,2.853-6.275,6.817c1.354,2.026,3.822,2.815,5.955,3.787
		c3.321,1.514,6.194,3.404,8.735,5.687c-0.007,0.004-0.016,0.002-0.025,0.006c-3.415,1.429-6.463,4.834-9.117,7.3
		c-4.496,4.175-7.231,9.833,1.239,11.003c4.931,0.681,16.583-3.355,9.59,5.037c-1.278,1.536-4.045,4.372-3.99,7.163
		c0.252,12.883,13.737-2.541,15.576-2.909c1.169-0.233,9.161,7.696,14.911,9.159c3.458,0.881,6.398-0.085,9.852,1.508
		c3.329,1.533,6.171,5.418,8.899,7.903c4.577,4.169,14.573,9.176,13.499-1.229c-0.249-2.39-4.449-7.906-1.566-8.192
		c6.454-0.64,11.75-4.843,16.883-8.499c6.316-4.505,12.377-8.491,19.48-11.636c-0.111,0.049,9.939-4.976,9.983-2.325
		c0.04,2.303,3.498,7.763,4.675,7.943c1.177,0.184,84.383-59.139,126.366-88.618c0.629-0.442,1.539-1.635,0.937-2.439
		c-0.681-0.906-9.304-3.826-9.146-4.488c0.157-0.663,6.545-1.761,7.292-4.679c0.858-3.354-10.396-11.991-14.979-9.16
		c-4.278,2.643-7.481,7.521-13.681,10.368c3.977-4.173,7.673-7.218,9.885-9.363c5.297-5.135,11.756-10.796,17.097-16.373
		c1.303-1.359,1.562-2.807,1.015-2.963c-5.792-1.641-2.302-1.989,0.178-4.11c0.509-0.435,0.91-1.633,0.204-2.14
		c-3.165-2.277-8.47,0.245-5.49-5.525C359.488,163.18,363.487,156.6,367.152,150.927z M360.681,176.117
		c-2.729,1.013-3.516,1.213-4.741,2.863c-0.309,0.416-0.891,1.468-0.39,1.969c0.844,0.844,3.667,0.674,4.028,1.001
		c-1.743,2.9-2.716,2.739-4.076,4.047c-3.779,3.643-7.61,7.235-11.401,10.87c-2.698,2.588-12.286,9.324-12.102,13.792
		c0.017,0.416,0.176,0.687,0.583,0.795c3.235,0.856,10.094-6.323,12.312-7.981c4.631-3.463,7.395-1.973,11.73,1.224
		c5.946,4.385-0.563,4.841-3.229,7.312c-0.508,0.471-1.21,1.587-0.654,2.24c1.426,1.681,6.146,2.734,9.614,4.449
		c-5.11,3.381-121.939,85.198-125.36,87.578c-0.695-2.624-2.599-6.75-2.468-9.166c0.053-0.485-0.088-1.376-0.821-1.113
		c-10.555,3.807-20.206,8.193-29.323,14.779c-7.302,5.275-12.086,7.658-20.581,9.824c-1.77,0.451-2.289,1.556-2.722,3.112
		c-0.375,1.348,1.62,3.179,2.192,4.19c2.204,2.653,1.634,4.853-1.713,6.595c-1.42-0.757-2.754-1.647-3.997-2.671
		c-3.116-2.296-5.622-5.31-8.552-7.813c-4.06-3.469-7.77-3.255-12.94-3.645c-5.675-0.424-11.594-5.779-15.67-9.365
		c-0.536-0.475-1.351,0.523-1.573,0.873c-2.473,2.86-7.972,8.124-10.077,7.188c-2.105-0.937-1.566-5.573,0.897-7.678
		c1.656-2.052,3.369-3.997,4.769-6.233c0.977-1.562,0.717-3.473-1.415-3.668c-4.729-0.437-23.063,2.177-13.346-6.864
		c2.895-2.695,5.392-5.971,8.276-5.971c0.936,0,5.153,4.458,5.966,4.913c2.924,1.638,3.042,0.936,1.191-1.985
		c-4.939-7.797-11.221-11.191-19.193-15.28c-3.95-2.025,3.029-4.024,6.655-3.791c4.785,0.31,18.446,5.458,24.134,8.11
		c7.307,3.41,14.198,7.992,21.743,10.86c5.104,1.938,10.451-7.534,12.846-10.549c5.746-7.231,12.633-12.165,16.974-20.775
		c3.844-7.626,7.306-15.666,10.121-23.69c2.57-7.331,4.873-14.949,4.555-22.776c-0.201-4.947-6.499-21.7-10.047-21.388
		c-1.874,0.166-0.272,12.088-0.818,21.602c-0.857-4.016-2.438-22.329-4.271-34.144c-0.227-1.47-2.073,0.504-2.153,1.196
		c-0.468,3.938-0.009,6.744-0.36,10.097c-0.506-2.183-0.663-3.314-1.365-5.849c-0.446-1.612-1.48-3.899-1.815,0.306
		c-0.425,5.369,0.218,5.504,0.373,14.473c-2.222-6.94-2.924-12.206-4.151-15.321c-0.146-0.369-0.668-0.338-0.979-0.107
		c-2.007,1.507-3.469,9.9-4.275,13.125c-1.948,7.805-6.852,12.516-12.548,17.849c-4.52,4.229-7.658,9.563-12.401,13.643
		c-8.567,7.372-15.747,14.411-21.917,23.94c-2.295,3.548-4.929,4.114-9.958,4.074c-14.681-0.117-18.159-2.892-21.29-6.726
		c2.573-0.292,5.041,0.146,6.185-2.892c0.588-1.563,0.497-2.941,0.499-4.584c0.005-5.142,1.718-5.642,5.046-9.183
		c2.665-2.835,2.215-6.568,5.151-8.433c4.335-2.753,5.068-2.7,5.182-7.573c0.133-5.678,4.714-8.01,8.146-12.241
		c2.881-3.551,1.985-8.324,1.996-12.638c0.035-11.123-4.072-20.913,2.959-30.967c3.039-4.347,7.375-7.602,10.429-11.918
		c3.471-4.904,2.404-11.047,6.944-15.9c2.76-2.948,6.379-6.891,6.304-11.27c-0.053-3.153-3.522-7.628-7.052-7.087
		c-3.136,0.479-5.721,1.922-8.758,2.896c-3.237,1.037-6.059-0.285-9.103,1.538c-3.906,2.341-6.251,6.214-10.003,8.715
		c-6.674,4.444-8.232-3.042-5.757-7.256c1.089-1.854,2.273-4.028,2.822-6.133c0.409-1.566,0.124-5.858-4.321-4.455
		c-4.445,1.404-8.13,2.778-13.57,1.55c1.462-0.614,3.373-0.305,6.025-0.643c0.826-0.105,1.97-0.676,1.678-1.438
		c-2.103-5.44-12.736-5.158-17.09-2.711c-3.235,1.817-5.146,3.688-9.327,1.613c-2.594-1.288-6.683-2.713-9.512-1.306
		c-3.745,1.863-4.467,4.743-2.868,8.496c2.336,5.489-4.003,10.431-5.081,15.459c-0.556,2.587,0.213,7.245,1.762,9.547
		c0.216,0.322,0.686,0.3,0.98,0.107c1.72-1.127,2.738-3.021,3.29-4.996c1.784-6.375,6.622-1.081,11.166-1.673
		c3.983-0.519,7.56-2.768,10.733-5.128c2.523-1.877,4.659-3.868,6.987-5.979c0.622-0.568,7.619-9.766,10.909-7.282
		c5.498,4.153-19.185,17.627-17.43,20.062c3.772,5.234,24.013,0.714,29.771-2.47c2.792-1.544,5.096-3.839,7.309-6.094
		c1.49-1.518,5.743-5.075,6.083,1.442c0.247,4.764-0.462,7.752-4.164,11.131c-3.92,3.577-8.501,7.899-8.41,9.735
		c0.176,3.48,6.902,4.738,6.96,5.937c0.059,1.199-2.632,4.357-6.521,3.392c-3.889-0.965-5.86-1.959-8.959-2.532
		c-6.12-1.13-10.863,1.024-15.811,4.499c-4.083,2.868-10.616,10.93-11.201,10.989c-0.585,0.059-13.511-10.382-13.511-10.382
		l-7.837,6.141c0,0-4.796-5.207-7.474-7.785c-0.51-0.49-1.142-0.113-1.526,0.364c-1.694,2.112-5.085,6.334-5.085,6.334
		s-2.593-3.708-4.307-5.374c-0.273-0.266-0.639-0.344-0.979-0.107c-2.159,1.511-5.443,5.393-7.743,3.797
		c-4.328-3.001-5.1-2.99-10.474-2.697c-3.752,0.204-9.621,0.547-9.778-5.022c-0.077-2.727-0.036-5.459-0.029-8.187
		c0.022-8.75-2.333-24.199,11.453-24.46c9.241-0.176,10.711-5.846,17.312-5.791c3.458,0.03,7.498,1.392,10.41-1.106
		c5.587-4.794,0.826-10.29,10.562-14.145c1.36-0.537,3.638-0.085,4.734-1.025c2.741-2.352,6.148-7.922,10.467-4.418
		c0.203,0.165,0.607,0.062,0.793-0.063c3.112-2.082,4.008-6.577,8.097-3.601c0.344,0.25,0.81-0.065,1.077-0.262
		c1.134-0.834,2.062-1.959,3.012-2.992c3.842-4.167,2.164-0.299,4.844-0.983c4.016-1.025,4.847-6.63,9.784-2.626
		c0.212,0.172,0.594,0.05,0.793-0.063c1.87-1.07,3.365-2.911,4.888-4.401c3.109-3.042,2.908-1.915,6.329-0.136
		c0.395,0.206,0.759-0.039,1.075-0.262c1.161-0.82,2.051-1.958,2.994-3.012c3.034-3.384,3.445-0.64,6.226,0.701
		c1.383,0.669,4.993-2.793,5.849-3.416c4.215-3.075,4.648,3.561,8.101,1.811c1.62-0.819,5.443-3.962,7.253-1.826
		c1.018,1.199,1.733,2.342,3.051,3.197c3.9,2.529,6.298-6.484,9.353,0.984c1.045,2.556,1.444,2.828,4.105,2.218
		c5.97-1.369,3.921-0.967,6.712,3.723c0.406,0.684,2.422,0.351,2.855,0.336c3.93-0.137,3.469,0.078,4.517,3.786
		c0.067,0.236,0.265,0.491,0.541,0.492c1.395,0.001,2.742-0.329,4.111-0.589c3.531-0.675,3.944,2.02,5.132,4.554
		c0.106,0.146,0.249,0.229,0.428,0.247c1.306-0.047,2.501-0.428,3.758-0.775c3.864-1.063,3.393,0.863,4.83,4.246
		c0.522,1.228,0.81,1.204,2.058,1.23c4.315,0.089,3.77-0.196,5.346,3.775c0.097,0.24,0.244,0.482,0.542,0.492
		c1.467,0.043,2.846-0.322,4.284-0.62c2.985-0.617,3.184,3.217,4.491,5.052c0.172,0.24,0.428,0.271,0.696,0.222
		c2.203-0.401,4.359-1.856,6.345-2.828c5.724-2.803,4.088,6.149,4.112,9.701c0.007,0.939,0.841,0.885,1.417,0.457
		c3.974-2.946,14.854-9.127,15.293-8.952c0.438,0.176-0.563,4.882-0.646,6.857c-0.013,0.32,0.189,0.807,0.583,0.795
		c3.833-0.117,5.769-1.708,4.186,2.505c-1.672,4.443-4.913,9.758-6.083,15.022c4.504-1.725,11.939-6.969,17.383-10.357
		c2.381-1.481,4.77-2.952,7.176-4.393c2.812-1.684,1.619,1.376,1.634,3.835c0.001,0.458,0.333,0.942,0.852,0.771
		c2.116-0.698,3.663-1.993,5.769-1.934c-0.42,1.212-0.818,2.865-1.258,4.328c0.731,0.41,2.106,0.702,2.106,0.702
		s-2.604,3.013-3.728,5.146c-1.146,2.177-1.227,6.546-2.996,8.032c-4.372,3.668-9.485,5.887-12.523,10.963
		c-0.272,0.458-0.633,1.809,0.272,1.876c8.267,0.615,14.339-2.342,20.02-8.123c1.825-1.859,3.804-5.794,6.284-6.809
		c2.259-0.925,13.383-7.587,14.645-3.964c0.186,0.533,0.632,0.566,1.093,0.352c2.347-1.091,6.996-4.304,7.797,0.194
		c0.094,0.524,0.713,0.592,1.094,0.352c1.768-1.118,2.395-2.17,4.499-3.768c-1.246,1.989-7.709,9.611-10.447,15.752
		c-2.555,5.732-10.627,11.522-4.679,16.377c-2.185,2.457-4.313,3.902-6.825,6.006c-3.353,2.807-6.121,4.133,1.6,3.743
		c6.918-0.35,9.347-2.023,15.331-5.355c2.242-1.247,18.941-13.815,18.415-7.362c-0.043,0.51,0.36,0.875,0.852,0.771
		c9.43-2.006,22.487-8.68,26.972-10.357c-1.832,3.314-9.939,13.506-12.459,21.527C352.121,176.698,357.794,174.674,360.681,176.117z
		"/>
	<path d="M161.311,348.388"/>
</g>
</svg>
